<svg width="43" height="51" viewBox="0 0 43 51" fill="none" xmlns="http://www.w3.org/2000/svg">
<path d="M1.74498 26.1455C1.74498 27.7035 1.62034 28.211 1.29983 28.5849C0.943119 28.9061 0.480024 29.0837 0 29.0835L0.124642 29.9738C0.86884 29.9838 1.59095 29.7209 2.15452 29.2348C2.45775 28.865 2.6834 28.438 2.818 27.9791C2.95261 27.5202 2.99341 27.0389 2.93798 26.5639V20.6702H1.74498V26.1099V26.1455Z" fill="#4E4E4E"/>
<path d="M10.6421 25.4433C10.6421 26.111 10.6421 26.7075 10.6955 27.2239H9.63601L9.56479 26.1644C9.34319 26.5393 9.02628 26.8488 8.64629 27.0614C8.26629 27.2741 7.83676 27.3824 7.40136 27.3752C6.36862 27.3752 5.14001 26.8143 5.14001 24.5263V20.7247H6.33301V24.2859C6.33301 25.5234 6.71584 26.3514 7.7931 26.3514C8.01473 26.3538 8.2346 26.3119 8.43983 26.2281C8.64506 26.1444 8.8315 26.0206 8.98823 25.8638C9.14495 25.7071 9.26881 25.5207 9.35253 25.3154C9.43624 25.1102 9.47814 24.8903 9.47576 24.6687V20.6802H10.6688V25.4077L10.6421 25.4433Z" fill="#4E4E4E"/>
<path d="M12.9034 22.8427C12.9034 22.0147 12.9034 21.3381 12.85 20.7238H13.9183L13.9717 21.8367C14.2098 21.4346 14.5524 21.1047 14.9632 20.882C15.374 20.6594 15.8375 20.5524 16.3043 20.5724C17.8891 20.5724 19.0821 21.899 19.0821 23.8754C19.0821 26.208 17.6487 27.3654 16.0996 27.3654C15.7031 27.3831 15.3087 27.2982 14.9547 27.1188C14.6006 26.9394 14.2989 26.6717 14.0786 26.3416V29.9028H12.9034V22.8694V22.8427ZM14.0786 24.5788C14.0818 24.7403 14.0997 24.9012 14.132 25.0595C14.233 25.4549 14.463 25.8052 14.7855 26.0551C15.108 26.3051 15.5046 26.4403 15.9126 26.4395C17.1679 26.4395 17.9069 25.4157 17.9069 23.9289C17.9069 22.629 17.2124 21.5162 15.9571 21.5162C15.4603 21.5568 14.9955 21.7773 14.6496 22.1363C14.3038 22.4952 14.1008 22.968 14.0786 23.4659V24.5788Z" fill="#4E4E4E"/>
<path d="M21.2077 20.7178L22.641 24.5549C22.7924 24.9823 22.9526 25.4987 23.0595 25.8815C23.1841 25.4898 23.3177 24.9912 23.4779 24.5282L24.7777 20.7178H26.0331L24.2525 25.3473C23.3622 27.573 22.8191 28.7215 22 29.416C21.5875 29.7928 21.0845 30.0565 20.5399 30.1816L20.2461 29.1845C20.6269 29.0594 20.9804 28.863 21.2878 28.6058C21.7221 28.2518 22.0668 27.8004 22.2938 27.2882C22.3424 27.1994 22.3755 27.1031 22.3917 27.0033C22.3816 26.8958 22.3546 26.7907 22.3116 26.6917L19.89 20.7H21.1898L21.2077 20.7178Z" fill="#4E4E4E"/>
<path d="M29.2001 18.8501V20.7197H30.9095V21.61H29.2001V25.1178C29.2001 25.9191 29.4316 26.382 30.0904 26.382C30.3244 26.3858 30.5579 26.3589 30.7849 26.3019L30.8383 27.1922C30.4979 27.3101 30.1388 27.3644 29.7788 27.3524C29.5404 27.3674 29.3016 27.3305 29.0788 27.2445C28.856 27.1584 28.6544 27.0252 28.4879 26.8539C28.1253 26.3688 27.9598 25.7644 28.0249 25.1623V21.6011H27.01V20.7108H28.0427V19.1261L29.2001 18.8501Z" fill="#4E4E4E"/>
<path d="M33.1071 24.1791C33.0829 24.481 33.1246 24.7846 33.2293 25.0689C33.3339 25.3531 33.499 25.6112 33.7132 25.8254C33.9274 26.0396 34.1855 26.2047 34.4698 26.3094C34.754 26.414 35.0576 26.4557 35.3596 26.4315C35.9703 26.4452 36.577 26.3299 37.1401 26.0932L37.3449 26.9835C36.6539 27.2682 35.9108 27.4047 35.1637 27.3842C34.7281 27.414 34.2913 27.3492 33.8832 27.1944C33.475 27.0395 33.1052 26.7982 32.799 26.487C32.4929 26.1758 32.2577 25.802 32.1095 25.3913C31.9614 24.9807 31.9038 24.5429 31.9408 24.1079C31.9408 22.1492 33.1071 20.6001 35.0123 20.6001C37.149 20.6001 37.6832 22.4697 37.6832 23.6627C37.6946 23.8465 37.6946 24.0309 37.6832 24.2147H33.0804L33.1071 24.1791ZM36.5971 23.2888C36.6314 23.0508 36.6144 22.8081 36.547 22.5773C36.4797 22.3464 36.3637 22.1326 36.2067 21.9504C36.0498 21.7682 35.8556 21.6217 35.6373 21.5208C35.419 21.42 35.1816 21.3671 34.9411 21.3658C34.4519 21.4012 33.9936 21.618 33.656 21.9737C33.3184 22.3294 33.1258 22.7984 33.116 23.2888H36.5971Z" fill="#4E4E4E"/>
<path d="M39.4934 22.7423C39.4934 21.9767 39.4934 21.3179 39.4399 20.7125H40.5083V21.9856H40.5617C40.6739 21.5926 40.9055 21.2444 41.2246 20.9891C41.5437 20.7338 41.9343 20.5842 42.3423 20.5611C42.4546 20.5464 42.5683 20.5464 42.6806 20.5611V21.674C42.5446 21.6582 42.4071 21.6582 42.2711 21.674C41.8669 21.6896 41.4823 21.8519 41.189 22.1304C40.8958 22.4089 40.7139 22.7847 40.6775 23.1875C40.6442 23.3696 40.6263 23.5543 40.624 23.7395V27.2027H39.4488V22.7512L39.4934 22.7423Z" fill="#4E4E4E"/>
<path d="M38.9705 2.83565C39.0071 3.43376 38.8648 4.02921 38.5617 4.54615C38.2587 5.0631 37.8086 5.47813 37.2689 5.73839C36.7291 5.99864 36.1241 6.09233 35.5309 6.00753C34.9377 5.92272 34.3832 5.66326 33.938 5.26219C33.4928 4.86113 33.177 4.33661 33.031 3.75546C32.8849 3.17431 32.9152 2.56283 33.1178 1.99893C33.3205 1.43503 33.6865 0.944221 34.1691 0.589037C34.6517 0.233853 35.2291 0.0303686 35.8278 0.00450544C36.2203 -0.0170932 36.6132 0.0391144 36.9839 0.169896C37.3546 0.300677 37.6958 0.503453 37.9879 0.766561C38.2799 1.02967 38.5171 1.34792 38.6858 1.70301C38.8544 2.0581 38.9512 2.44303 38.9705 2.83565Z" fill="#767677"/>
<path d="M21.3661 37.7025C13.3535 37.7025 6.31123 34.8268 2.66992 30.5801C4.08276 34.4005 6.63207 37.6964 9.97471 40.0241C13.3173 42.3519 17.2929 43.5997 21.3661 43.5997C25.4394 43.5997 29.4149 42.3519 32.7576 40.0241C36.1002 37.6964 38.6495 34.4005 40.0624 30.5801C36.43 34.8268 29.4144 37.7025 21.3661 37.7025Z" fill="#F37726"/>
<path d="M21.3661 10.0872C29.3788 10.0872 36.4211 12.9629 40.0624 17.2095C38.6495 13.3892 36.1002 10.0933 32.7576 7.76553C29.4149 5.43779 25.4394 4.18994 21.3661 4.18994C17.2929 4.18994 13.3173 5.43779 9.97471 7.76553C6.63207 10.0933 4.08276 13.3892 2.66992 17.2095C6.31123 12.954 13.3179 10.0872 21.3661 10.0872Z" fill="#F37726"/>
<path d="M10.3358 45.9667C10.3828 46.7201 10.2044 47.4704 9.82346 48.122C9.4425 48.7736 8.87618 49.2971 8.19665 49.6258C7.51712 49.9544 6.75514 50.0733 6.0078 49.9673C5.26045 49.8613 4.56157 49.5353 4.0002 49.0307C3.43883 48.5261 3.04038 47.8658 2.85563 47.1339C2.67087 46.402 2.70817 45.6317 2.96277 44.9211C3.21737 44.2105 3.67774 43.5918 4.28523 43.1438C4.89273 42.6958 5.61984 42.4388 6.37393 42.4055C6.86792 42.3791 7.36228 42.4503 7.82877 42.6149C8.29525 42.7796 8.72472 43.0346 9.09263 43.3653C9.46054 43.696 9.7597 44.096 9.97299 44.5423C10.1863 44.9887 10.3096 45.4727 10.3358 45.9667Z" fill="#9E9E9E"/>
<path d="M3.58057 9.11942C3.14882 9.13134 2.72318 9.01534 2.35718 8.78601C1.99118 8.55667 1.70116 8.22423 1.5236 7.83051C1.34603 7.43678 1.28885 6.99934 1.35924 6.5732C1.42962 6.14706 1.62444 5.75124 1.91919 5.43553C2.21394 5.11982 2.59546 4.89831 3.01577 4.79885C3.43607 4.69939 3.8764 4.72643 4.28139 4.87656C4.68637 5.0267 5.03792 5.29322 5.29182 5.64263C5.54573 5.99203 5.69066 6.40871 5.70838 6.84026C5.72525 7.42379 5.51127 7.99043 5.11289 8.41714C4.71451 8.84386 4.16388 9.09622 3.58057 9.11942Z" fill="#616262"/>
</svg>
