<svg width="634" height="223" viewBox="0 0 634 223" fill="none" xmlns="http://www.w3.org/2000/svg">
<path d="M255.23 74C255.789 74.07 256.335 74.2216 256.85 74.45C257.354 74.6893 257.819 75.0028 258.23 75.38C258.761 75.8872 259.259 76.4284 259.72 77L301.23 129.47C301.06 127.8 300.95 126.16 300.87 124.59C300.79 123.02 300.75 121.52 300.75 120.12V73.83H318.62V161.21H308.06C306.707 161.249 305.362 161.003 304.11 160.49C302.87 159.878 301.799 158.971 300.99 157.85L259.78 105.85C259.91 107.36 260 108.85 260.08 110.31C260.16 111.77 260.21 113.14 260.21 114.42V161.26H242.33V73.83H253C253.746 73.8383 254.491 73.895 255.23 74V74Z" fill="#4D77CF"/>
<path d="M348 99V138.46C348 141.54 348.7 143.92 350.1 145.6C350.871 146.461 351.829 147.136 352.899 147.573C353.97 148.009 355.126 148.196 356.28 148.12C358.26 148.133 360.218 147.703 362.01 146.86C363.905 145.942 365.654 144.749 367.2 143.32V99H385.79V161.19H374.28C373.276 161.273 372.274 161.009 371.442 160.441C370.609 159.873 369.998 159.036 369.71 158.07L368.58 154.47C367.41 155.603 366.168 156.659 364.86 157.63C363.575 158.565 362.198 159.365 360.75 160.02C359.225 160.707 357.633 161.237 356 161.6C354.19 161.994 352.342 162.185 350.49 162.17C347.398 162.226 344.33 161.623 341.49 160.4C338.939 159.27 336.673 157.581 334.86 155.46C333.016 153.255 331.629 150.706 330.78 147.96C329.832 144.891 329.366 141.692 329.4 138.48V99H348Z" fill="#4D77CF"/>
<path d="M397.78 161.21V99H409.3C410.326 98.9629 411.34 99.2346 412.21 99.78C413.017 100.343 413.6 101.171 413.86 102.12L414.86 105.48C415.869 104.41 416.948 103.407 418.09 102.48C419.216 101.576 420.432 100.792 421.72 100.14C424.553 98.7017 427.693 97.9709 430.87 98.01C434.222 97.8794 437.517 98.907 440.2 100.92C442.728 102.959 444.662 105.639 445.8 108.68C446.786 106.839 448.074 105.176 449.61 103.76C451.063 102.435 452.7 101.327 454.47 100.47C456.223 99.6261 458.074 99.0014 459.98 98.61C461.888 98.2131 463.831 98.0121 465.78 98.01C469.008 97.9543 472.218 98.4933 475.25 99.6C477.889 100.579 480.262 102.161 482.18 104.22C484.107 106.369 485.549 108.906 486.41 111.66C487.417 114.896 487.903 118.271 487.85 121.66V161.18H469.25V121.69C469.25 115.25 466.493 112.033 460.98 112.04C459.82 112.003 458.665 112.205 457.586 112.633C456.507 113.061 455.528 113.707 454.71 114.53C453.05 116.177 452.22 118.563 452.22 121.69V161.21H433.65V121.69C433.65 118.13 432.95 115.63 431.55 114.19C430.15 112.75 428.09 112.04 425.37 112.04C423.713 112.036 422.079 112.423 420.6 113.17C419.047 113.976 417.621 115.007 416.37 116.23V161.23L397.78 161.21Z" fill="#4D77CF"/>
<path d="M518.93 132V161.21H498.66V73.83H529.48C534.851 73.7106 540.208 74.443 545.35 76C549.361 77.2283 553.075 79.2708 556.26 82C559.064 84.4702 561.235 87.5771 562.59 91.06C563.959 94.6576 564.637 98.481 564.59 102.33C564.638 106.425 563.926 110.494 562.49 114.33C561.126 117.917 558.925 121.126 556.07 123.69C552.891 126.463 549.164 128.535 545.13 129.77C540.065 131.34 534.782 132.093 529.48 132H518.93ZM518.93 116.71H529.48C534.76 116.71 538.56 115.46 540.88 112.93C543.2 110.4 544.36 106.93 544.36 102.38C544.384 100.521 544.079 98.6728 543.46 96.92C542.886 95.3197 541.952 93.8725 540.73 92.69C539.408 91.4539 537.831 90.5222 536.11 89.96C533.969 89.2688 531.73 88.931 529.48 88.96H518.93V116.71Z" fill="#4D77CF"/>
<path d="M600.61 177.35C600.187 178.413 599.498 179.349 598.61 180.07C597.448 180.743 596.109 181.046 594.77 180.94H580.82L592.82 155.76L568 99H584.43C585.631 98.9385 586.818 99.2915 587.79 100C588.552 100.588 589.134 101.378 589.47 102.28L599.66 129.09C600.602 131.506 601.384 133.981 602 136.5C602.4 135.22 602.84 133.96 603.32 132.73C603.8 131.5 604.26 130.23 604.7 128.95L613.94 102.26C614.289 101.297 614.956 100.483 615.83 99.95C616.716 99.3496 617.76 99.0259 618.83 99.02H633.83L600.61 177.35Z" fill="#4D77CF"/>
<path d="M88.38 45.4L51.25 26.66L10.49 47L48.63 66.15L88.38 45.4Z" fill="#4DABCF"/>
<path d="M105.41 53.99L144.34 73.65L103.95 93.93L65.75 74.75L105.41 53.99Z" fill="#4DABCF"/>
<path d="M157.41 26.94L197.41 47L161.63 64.96L122.62 45.28L157.41 26.94Z" fill="#4DABCF"/>
<path d="M140.19 18.3L104.18 0.240005L68.5601 18.02L105.67 36.73L140.19 18.3Z" fill="#4DABCF"/>
<path d="M112.04 173.36V222.5L155.66 200.73L155.62 151.57L112.04 173.36Z" fill="#4DABCF"/>
<path d="M155.6 134.41L155.55 85.77L112.04 107.4V156.06L155.6 134.41Z" fill="#4DABCF"/>
<path d="M207.97 125.3V174.63L170.76 193.19L170.73 144.09L207.97 125.3Z" fill="#4DABCF"/>
<path d="M207.97 108.05V59.71L170.69 78.24L170.72 126.98L207.97 108.05Z" fill="#4DABCF"/>
<path d="M96.64 107.4L67.26 92.62V156.46C67.26 156.46 31.32 80 28 73.13C27.57 72.24 25.81 71.27 25.36 71.03C18.88 67.65 0 58.09 0 58.09V170.92L26.12 184.92V125.92C26.12 125.92 61.67 194.24 62.04 194.99C62.41 195.74 65.96 202.93 69.78 205.46C74.85 208.83 96.62 221.92 96.62 221.92L96.64 107.4Z" fill="#4D77CF"/>
</svg>
