<svg width="64" height="64" viewBox="0 0 64 64" fill="none" xmlns="http://www.w3.org/2000/svg">
<g clip-path="url(#clip0)">
<path d="M32 64C49.6731 64 64 49.6731 64 32C64 14.3269 49.6731 0 32 0C14.3269 0 0 14.3269 0 32C0 49.6731 14.3269 64 32 64Z" fill="#004E8C"/>
<path opacity="0.1" d="M9.81998 9C6.56695 11.8988 3.94018 15.4314 2.1007 19.3813C0.261219 23.3312 -0.752226 27.6152 -0.877515 31.9706C-1.0028 36.326 -0.237295 40.6611 1.37209 44.7102C2.98147 48.7593 5.40082 52.4371 8.48184 55.5181C11.5629 58.5992 15.2406 61.0185 19.2897 62.6279C23.3388 64.2373 27.674 65.0028 32.0294 64.8775C36.3848 64.7522 40.6688 63.7388 44.6187 61.8993C48.5686 60.0598 52.1012 57.433 55 54.18L9.81998 9Z" fill="white"/>
<path d="M33.2899 19.4L23.9999 44.6H20.7099L11.5699 19.4H14.8599L21.8599 39.4C22.1013 40.1252 22.2721 40.872 22.3699 41.63H22.4399C22.5447 40.8522 22.7325 40.0878 22.9999 39.35L30.1199 19.35L33.2899 19.4Z" fill="white"/>
<path d="M36.92 44.6V19.4H44.09C45.952 19.3004 47.7886 19.8676 49.27 21C49.8896 21.5003 50.3852 22.1369 50.7183 22.8602C51.0513 23.5835 51.2128 24.374 51.19 25.17C51.2096 26.5066 50.7917 27.8129 50 28.89C49.2011 29.9626 48.0797 30.7511 46.8 31.14V31.21C48.3477 31.3347 49.7975 32.017 50.88 33.13C51.9267 34.2838 52.4765 35.8036 52.41 37.36C52.4428 38.3517 52.2512 39.3381 51.8494 40.2454C51.4477 41.1527 50.8463 41.9576 50.09 42.6C48.4535 43.9654 46.37 44.6777 44.24 44.6H36.92ZM39.92 22.06V30.2H42.92C44.286 30.2642 45.63 29.8387 46.71 29C47.178 28.5923 47.5465 28.083 47.7875 27.5111C48.0284 26.9391 48.1353 26.3196 48.1 25.7C48.1 23.2533 46.49 22.03 43.27 22.03L39.92 22.06ZM39.92 32.85V41.92H43.92C45.3578 42.0033 46.7775 41.5668 47.92 40.69C48.3967 40.2722 48.7729 39.7521 49.0205 39.1686C49.2681 38.585 49.3808 37.9531 49.35 37.32C49.35 34.3467 47.3234 32.86 43.27 32.86L39.92 32.85Z" fill="white"/>
</g>
<defs>
<clipPath id="clip0">
<rect width="64" height="64" fill="white"/>
</clipPath>
</defs>
</svg>
